<?xml version="1.0" encoding="UTF-8"?>
<svg xmlns="http://www.w3.org/2000/svg" width="800" height="600" viewBox="0 0 800 600">
  <defs>
    <linearGradient id="mysticalGradient" x1="0%" y1="0%" x2="100%" y2="100%">
      <stop offset="0%" style="stop-color:#6c5ce7;stop-opacity:1" />
      <stop offset="100%" style="stop-color:#00cec9;stop-opacity:1" />
    </linearGradient>
    <filter id="glow">
      <feGaussianBlur stdDeviation="3" result="coloredBlur"/>
      <feMerge> 
        <feMergeNode in="coloredBlur"/>
        <feMergeNode in="SourceGraphic"/> 
      </feMerge>
    </filter>
  </defs>

  <!-- Past Life Regression - Mystical Figure with Time Portal -->
  <g id="pastlife-icon" transform="translate(50, 50)">
    <circle cx="50" cy="50" r="45" fill="url(#mysticalGradient)" opacity="0.2"/>
    <path d="M25 30 Q50 20 75 30 L70 40 Q50 30 30 40 Z" fill="#6c5ce7" filter="url(#glow)"/>
    <circle cx="50" cy="45" r="15" fill="none" stroke="#00cec9" stroke-width="2"/>
    <path d="M35 60 Q50 70 65 60" fill="none" stroke="#6c5ce7" stroke-width="2"/>
    <circle cx="42" cy="42" r="2" fill="#00cec9"/>
    <circle cx="58" cy="42" r="2" fill="#00cec9"/>
    <path d="M20 25 Q50 15 80 25" fill="none" stroke="#00cec9" stroke-width="1" opacity="0.6"/>
    <path d="M20 75 Q50 85 80 75" fill="none" stroke="#00cec9" stroke-width="1" opacity="0.6"/>
  </g>

  <!-- Mangalik - Fire Spirit with Mars Symbol -->
  <g id="mangalik-icon" transform="translate(150, 50)">
    <circle cx="50" cy="50" r="45" fill="url(#mysticalGradient)" opacity="0.2"/>
    <path d="M50 20 L55 35 L70 30 L60 45 L75 55 L55 50 L50 65 L45 50 L25 55 L40 45 L30 30 L45 35 Z" fill="#ff6b6b" filter="url(#glow)"/>
    <circle cx="50" cy="45" r="8" fill="#ff4757"/>
    <path d="M50 25 L50 15 M45 20 L55 20 M50 15 L47 12 M50 15 L53 12" stroke="#ff6b6b" stroke-width="2" fill="none"/>
    <circle cx="50" cy="75" r="3" fill="#ff6b6b" opacity="0.8"/>
    <circle cx="35" cy="65" r="2" fill="#ff6b6b" opacity="0.6"/>
    <circle cx="65" cy="65" r="2" fill="#ff6b6b" opacity="0.6"/>
  </g>

  <!-- Marriage Prediction - Cosmic Couple with Rings -->
  <g id="marriage-icon" transform="translate(250, 50)">
    <circle cx="50" cy="50" r="45" fill="url(#mysticalGradient)" opacity="0.2"/>
    <ellipse cx="40" cy="40" rx="8" ry="12" fill="#6c5ce7" filter="url(#glow)"/>
    <ellipse cx="60" cy="40" rx="8" ry="12" fill="#00cec9" filter="url(#glow)"/>
    <path d="M32 52 Q40 60 48 52" fill="none" stroke="#6c5ce7" stroke-width="2"/>
    <path d="M52 52 Q60 60 68 52" fill="none" stroke="#00cec9" stroke-width="2"/>
    <circle cx="40" cy="35" r="3" fill="#ffffff"/>
    <circle cx="60" cy="35" r="3" fill="#ffffff"/>
    <circle cx="35" cy="70" r="8" fill="none" stroke="#ffd700" stroke-width="2"/>
    <circle cx="65" cy="70" r="8" fill="none" stroke="#ffd700" stroke-width="2"/>
    <path d="M43 70 L57 70" stroke="#ffd700" stroke-width="3"/>
  </g>

  <!-- Lucky Name - Mystical Scribe with Sacred Text -->
  <g id="luckyname-icon" transform="translate(350, 50)">
    <circle cx="50" cy="50" r="45" fill="url(#mysticalGradient)" opacity="0.2"/>
    <rect x="30" y="25" width="40" height="50" rx="3" fill="#6c5ce7" opacity="0.3" filter="url(#glow)"/>
    <path d="M35 35 L65 35" stroke="#00cec9" stroke-width="2"/>
    <path d="M35 45 L60 45" stroke="#00cec9" stroke-width="2"/>
    <path d="M35 55 L65 55" stroke="#00cec9" stroke-width="2"/>
    <path d="M35 65 L55 65" stroke="#00cec9" stroke-width="2"/>
    <circle cx="25" cy="40" r="3" fill="#ffd700"/>
    <circle cx="75" cy="60" r="3" fill="#ffd700"/>
    <path d="M20 20 Q50 10 80 20" fill="none" stroke="#00cec9" stroke-width="1" opacity="0.6"/>
    <circle cx="50" cy="15" r="2" fill="#ffd700"/>
  </g>

  <!-- Blocking Planet - Dark Planet with Energy Barriers -->
  <g id="planet-icon" transform="translate(450, 50)">
    <circle cx="50" cy="50" r="45" fill="url(#mysticalGradient)" opacity="0.2"/>
    <circle cx="50" cy="50" r="20" fill="#2d3436" stroke="#636e72" stroke-width="2"/>
    <path d="M30 30 L70 70 M70 30 L30 70" stroke="#ff6b6b" stroke-width="3" opacity="0.8"/>
    <circle cx="50" cy="50" r="25" fill="none" stroke="#ff6b6b" stroke-width="2" stroke-dasharray="5,5"/>
    <circle cx="25" cy="25" r="3" fill="#636e72"/>
    <circle cx="75" cy="75" r="3" fill="#636e72"/>
    <circle cx="75" cy="25" r="2" fill="#636e72"/>
    <circle cx="25" cy="75" r="2" fill="#636e72"/>
    <path d="M15 50 Q50 40 85 50" fill="none" stroke="#636e72" stroke-width="1" opacity="0.5"/>
  </g>

  <!-- Future Child - Innocent Soul with Stardust -->
  <g id="child-icon" transform="translate(550, 50)">
    <circle cx="50" cy="50" r="45" fill="url(#mysticalGradient)" opacity="0.2"/>
    <circle cx="50" cy="40" r="15" fill="#ffeaa7" filter="url(#glow)"/>
    <ellipse cx="50" cy="65" rx="12" ry="20" fill="#6c5ce7" opacity="0.8"/>
    <circle cx="45" cy="38" r="2" fill="#2d3436"/>
    <circle cx="55" cy="38" r="2" fill="#2d3436"/>
    <path d="M47 45 Q50 48 53 45" fill="none" stroke="#2d3436" stroke-width="1"/>
    <circle cx="30" cy="25" r="2" fill="#ffd700"/>
    <circle cx="70" cy="30" r="2" fill="#ffd700"/>
    <circle cx="25" cy="70" r="2" fill="#ffd700"/>
    <circle cx="75" cy="65" r="2" fill="#ffd700"/>
    <path d="M35 20 L40 25 L35 30 L30 25 Z" fill="#ffd700" opacity="0.6"/>
  </g>

  <!-- Twin Flame - Dual Souls with Cosmic Connection -->
  <g id="twinflame-icon" transform="translate(50, 200)">
    <circle cx="50" cy="50" r="45" fill="url(#mysticalGradient)" opacity="0.2"/>
    <path d="M35 30 Q40 20 45 30 Q50 40 45 50 Q40 60 35 50 Q30 40 35 30" fill="#ff6b6b"/>
    <path d="M55 30 Q60 20 65 30 Q70 40 65 50 Q60 60 55 50 Q50 40 55 30" fill="#00cec9"/>
    <circle cx="40" cy="40" r="3" fill="#ffffff"/>
    <circle cx="60" cy="40" r="3" fill="#ffffff"/>
    <path d="M45 45 Q50 50 55 45" stroke="#ffd700" stroke-width="2" fill="none"/>
    <circle cx="25" cy="30" r="1" fill="#ffd700"/>
    <circle cx="75" cy="30" r="1" fill="#ffd700"/>
    <circle cx="30" cy="70" r="1" fill="#ffd700"/>
    <circle cx="70" cy="70" r="1" fill="#ffd700"/>
  </g>

  <!-- Relationship Analysis - Intertwined Hearts with Cosmic Energy -->
  <g id="relationship-icon" transform="translate(150, 200)">
    <circle cx="50" cy="50" r="45" fill="url(#mysticalGradient)" opacity="0.2"/>
    <path d="M35 35 Q30 25 40 25 Q50 25 45 35 Q50 45 40 55 Q30 45 35 35" fill="#ff6b6b" opacity="0.8"/>
    <path d="M55 35 Q60 25 70 25 Q75 35 65 35 Q70 45 60 55 Q50 45 55 35" fill="#6c5ce7" opacity="0.8"/>
    <circle cx="50" cy="50" r="25" fill="none" stroke="#00cec9" stroke-width="1" stroke-dasharray="3,3" opacity="0.6"/>
    <circle cx="25" cy="25" r="2" fill="#ffd700"/>
    <circle cx="75" cy="25" r="2" fill="#ffd700"/>
    <circle cx="25" cy="75" r="2" fill="#ffd700"/>
    <circle cx="75" cy="75" r="2" fill="#ffd700"/>
    <path d="M20 50 Q50 40 80 50" fill="none" stroke="#00cec9" stroke-width="1" opacity="0.4"/>
  </g>
</svg>